# xmcd CD database file
#
# Track frame offsets:
#	150
#	21582
#	44704
#	106142
#	165154
#
# Disc length: 2835 seconds
#
# Revision: 0
# Processed by: cddbd v1.5.1PL0 Copyright (c) Steve Scherf et al.
# Submitted via: CDex 1.51
#
DISCID=380b1105
DTITLE=Dewey Redman - Tarik
DYEAR=1969
DGENRE=Jazz
TTITLE0=Tarik
TTITLE1=Fo Io
TTITLE2=Paris Oui
TTITLE3=Lop-o-lop
TTITLE4=Related and Unrelated Vibrations
EXTD=YEAR: 1969
EXTT0=
EXTT1=
EXTT2=
EXTT3=
EXTT4=
PLAYORDER=
